<mxfile host="app.diagrams.net" agent="Mozilla/5.0 (Macintosh; Intel Mac OS X 10_15_7) AppleWebKit/605.1.15 (KHTML, like Gecko) Version/18.3 Safari/605.1.15" version="26.0.15">
  <diagram name="Page-1" id="97916047-d0de-89f5-080d-49f4d83e522f">
    <mxGraphModel dx="4978" dy="967" grid="1" gridSize="10" guides="1" tooltips="1" connect="1" arrows="1" fold="1" page="1" pageScale="1.5" pageWidth="1169" pageHeight="827" background="none" math="0" shadow="0">
      <root>
        <mxCell id="0" />
        <mxCell id="1" parent="0" />
        <mxCell id="kjqUYPn-NtSr5DM89MB0-171" style="edgeStyle=elbowEdgeStyle;shape=connector;rounded=1;orthogonalLoop=1;jettySize=auto;elbow=vertical;html=1;exitX=0.5;exitY=1;exitDx=0;exitDy=0;strokeColor=#23445D;strokeWidth=4;align=center;verticalAlign=middle;fontFamily=Helvetica;fontSize=11;fontColor=default;fontStyle=1;labelBackgroundColor=default;endArrow=block;endFill=1;" edge="1" parent="1" source="4" target="kjqUYPn-NtSr5DM89MB0-170">
          <mxGeometry relative="1" as="geometry" />
        </mxCell>
        <mxCell id="4" value="Joey Gorneault" style="rounded=1;fillColor=#10739E;strokeColor=none;shadow=1;gradientColor=none;fontStyle=1;fontColor=#FFFFFF;fontSize=14;" parent="1" vertex="1">
          <mxGeometry x="-1290" y="430" width="200" height="60" as="geometry" />
        </mxCell>
        <mxCell id="kjqUYPn-NtSr5DM89MB0-139" style="edgeStyle=elbowEdgeStyle;shape=connector;rounded=1;orthogonalLoop=1;jettySize=auto;elbow=vertical;html=1;entryX=0.5;entryY=0;entryDx=0;entryDy=0;strokeColor=#23445D;strokeWidth=4;align=center;verticalAlign=middle;fontFamily=Helvetica;fontSize=11;fontColor=default;fontStyle=1;labelBackgroundColor=default;endArrow=none;endFill=1;exitX=0.5;exitY=1;exitDx=0;exitDy=0;startFill=0;" edge="1" parent="1" source="kjqUYPn-NtSr5DM89MB0-147" target="kjqUYPn-NtSr5DM89MB0-138">
          <mxGeometry relative="1" as="geometry">
            <Array as="points">
              <mxPoint x="-170" y="650" />
            </Array>
          </mxGeometry>
        </mxCell>
        <mxCell id="kjqUYPn-NtSr5DM89MB0-140" style="edgeStyle=elbowEdgeStyle;shape=connector;rounded=1;orthogonalLoop=1;jettySize=auto;elbow=vertical;html=1;entryX=0.5;entryY=0;entryDx=0;entryDy=0;strokeColor=#23445D;strokeWidth=4;align=center;verticalAlign=middle;fontFamily=Helvetica;fontSize=11;fontColor=default;fontStyle=1;labelBackgroundColor=default;endArrow=none;endFill=1;exitX=0.5;exitY=1;exitDx=0;exitDy=0;startFill=0;" edge="1" parent="1" source="kjqUYPn-NtSr5DM89MB0-147" target="kjqUYPn-NtSr5DM89MB0-134">
          <mxGeometry relative="1" as="geometry">
            <Array as="points">
              <mxPoint x="-80" y="650" />
            </Array>
          </mxGeometry>
        </mxCell>
        <mxCell id="kjqUYPn-NtSr5DM89MB0-142" style="edgeStyle=elbowEdgeStyle;shape=connector;rounded=1;orthogonalLoop=1;jettySize=auto;elbow=vertical;html=1;entryX=0.5;entryY=0;entryDx=0;entryDy=0;strokeColor=#23445D;strokeWidth=4;align=center;verticalAlign=middle;fontFamily=Helvetica;fontSize=11;fontColor=default;fontStyle=1;labelBackgroundColor=default;endArrow=none;endFill=1;exitX=0.5;exitY=1;exitDx=0;exitDy=0;startFill=0;" edge="1" parent="1" source="kjqUYPn-NtSr5DM89MB0-147" target="kjqUYPn-NtSr5DM89MB0-136">
          <mxGeometry relative="1" as="geometry">
            <Array as="points">
              <mxPoint x="150" y="650" />
            </Array>
          </mxGeometry>
        </mxCell>
        <mxCell id="kjqUYPn-NtSr5DM89MB0-143" style="edgeStyle=elbowEdgeStyle;shape=connector;rounded=1;orthogonalLoop=1;jettySize=auto;elbow=vertical;html=1;entryX=0.5;entryY=0;entryDx=0;entryDy=0;strokeColor=#23445D;strokeWidth=4;align=center;verticalAlign=middle;fontFamily=Helvetica;fontSize=11;fontColor=default;fontStyle=1;labelBackgroundColor=default;endArrow=none;endFill=1;exitX=0.5;exitY=1;exitDx=0;exitDy=0;startFill=0;" edge="1" parent="1" source="kjqUYPn-NtSr5DM89MB0-147" target="kjqUYPn-NtSr5DM89MB0-133">
          <mxGeometry relative="1" as="geometry">
            <Array as="points">
              <mxPoint x="250" y="650" />
            </Array>
          </mxGeometry>
        </mxCell>
        <mxCell id="kjqUYPn-NtSr5DM89MB0-144" style="edgeStyle=elbowEdgeStyle;shape=connector;rounded=1;orthogonalLoop=1;jettySize=auto;elbow=vertical;html=1;entryX=0.5;entryY=0;entryDx=0;entryDy=0;strokeColor=#23445D;strokeWidth=4;align=center;verticalAlign=middle;fontFamily=Helvetica;fontSize=11;fontColor=default;fontStyle=1;labelBackgroundColor=default;endArrow=none;endFill=1;exitX=0.5;exitY=1;exitDx=0;exitDy=0;startFill=0;" edge="1" parent="1" source="kjqUYPn-NtSr5DM89MB0-147" target="kjqUYPn-NtSr5DM89MB0-137">
          <mxGeometry relative="1" as="geometry">
            <Array as="points">
              <mxPoint x="340" y="650" />
            </Array>
          </mxGeometry>
        </mxCell>
        <mxCell id="kjqUYPn-NtSr5DM89MB0-146" style="edgeStyle=elbowEdgeStyle;shape=connector;rounded=1;orthogonalLoop=1;jettySize=auto;elbow=vertical;html=1;entryX=0.5;entryY=0;entryDx=0;entryDy=0;strokeColor=#23445D;strokeWidth=4;align=center;verticalAlign=middle;fontFamily=Helvetica;fontSize=11;fontColor=default;fontStyle=1;labelBackgroundColor=default;endArrow=none;endFill=1;exitX=0.5;exitY=1;exitDx=0;exitDy=0;startFill=0;" edge="1" parent="1" source="kjqUYPn-NtSr5DM89MB0-147" target="kjqUYPn-NtSr5DM89MB0-135">
          <mxGeometry relative="1" as="geometry">
            <Array as="points">
              <mxPoint x="40" y="650" />
            </Array>
          </mxGeometry>
        </mxCell>
        <mxCell id="kjqUYPn-NtSr5DM89MB0-149" style="edgeStyle=elbowEdgeStyle;shape=connector;rounded=1;orthogonalLoop=1;jettySize=auto;elbow=vertical;html=1;entryX=0.5;entryY=0;entryDx=0;entryDy=0;strokeColor=#23445D;strokeWidth=4;align=center;verticalAlign=middle;fontFamily=Helvetica;fontSize=11;fontColor=default;fontStyle=1;labelBackgroundColor=default;endArrow=block;endFill=1;" edge="1" parent="1" source="5" target="kjqUYPn-NtSr5DM89MB0-147">
          <mxGeometry relative="1" as="geometry" />
        </mxCell>
        <mxCell id="5" value="Bryan Bubar" style="rounded=1;fillColor=#10739E;strokeColor=none;shadow=1;gradientColor=none;fontStyle=1;fontColor=#FFFFFF;fontSize=14;" parent="1" vertex="1">
          <mxGeometry x="-10" y="430" width="200" height="60" as="geometry" />
        </mxCell>
        <mxCell id="kjqUYPn-NtSr5DM89MB0-77" style="edgeStyle=elbowEdgeStyle;shape=connector;rounded=1;orthogonalLoop=1;jettySize=auto;elbow=vertical;html=1;startArrow=none;endArrow=none;strokeColor=#23445D;strokeWidth=4;align=center;verticalAlign=middle;fontFamily=Helvetica;fontSize=11;fontColor=default;fontStyle=1;labelBackgroundColor=default;exitX=0.5;exitY=1;exitDx=0;exitDy=0;" edge="1" parent="1" source="kjqUYPn-NtSr5DM89MB0-75" target="4">
          <mxGeometry relative="1" as="geometry" />
        </mxCell>
        <mxCell id="kjqUYPn-NtSr5DM89MB0-78" style="edgeStyle=elbowEdgeStyle;shape=connector;rounded=1;orthogonalLoop=1;jettySize=auto;elbow=vertical;html=1;startArrow=none;endArrow=none;entryX=0.5;entryY=0;entryDx=0;entryDy=0;strokeColor=#23445D;strokeWidth=4;align=center;verticalAlign=middle;fontFamily=Helvetica;fontSize=11;fontColor=default;fontStyle=1;labelBackgroundColor=default;exitX=0.5;exitY=1;exitDx=0;exitDy=0;" edge="1" parent="1" source="kjqUYPn-NtSr5DM89MB0-75" target="5">
          <mxGeometry relative="1" as="geometry">
            <mxPoint x="220" y="370" as="sourcePoint" />
          </mxGeometry>
        </mxCell>
        <mxCell id="kjqUYPn-NtSr5DM89MB0-174" style="edgeStyle=elbowEdgeStyle;shape=connector;rounded=1;orthogonalLoop=1;jettySize=auto;elbow=vertical;html=1;startArrow=none;endArrow=none;exitX=0.5;exitY=1;exitDx=0;exitDy=0;entryX=0.5;entryY=0;entryDx=0;entryDy=0;strokeColor=#23445D;strokeWidth=4;align=center;verticalAlign=middle;fontFamily=Helvetica;fontSize=11;fontColor=default;fontStyle=1;labelBackgroundColor=default;" edge="1" parent="1" source="kjqUYPn-NtSr5DM89MB0-75" target="kjqUYPn-NtSr5DM89MB0-106">
          <mxGeometry relative="1" as="geometry" />
        </mxCell>
        <mxCell id="kjqUYPn-NtSr5DM89MB0-75" value="Farming Operations" style="whiteSpace=wrap;html=1;align=center;verticalAlign=middle;treeFolding=1;treeMoving=1;newEdgeStyle={&quot;edgeStyle&quot;:&quot;elbowEdgeStyle&quot;,&quot;startArrow&quot;:&quot;none&quot;,&quot;endArrow&quot;:&quot;none&quot;};fontFamily=Helvetica;fontSize=11;fontColor=default;fontStyle=1;labelBackgroundColor=default;" vertex="1" parent="1">
          <mxGeometry x="40" y="280" width="100" height="60" as="geometry" />
        </mxCell>
        <mxCell id="kjqUYPn-NtSr5DM89MB0-90" style="edgeStyle=elbowEdgeStyle;shape=connector;rounded=1;orthogonalLoop=1;jettySize=auto;elbow=vertical;html=1;entryX=0.5;entryY=0;entryDx=0;entryDy=0;strokeColor=#23445D;strokeWidth=4;align=center;verticalAlign=middle;fontFamily=Helvetica;fontSize=11;fontColor=default;fontStyle=1;labelBackgroundColor=default;endArrow=block;endFill=1;exitX=0.5;exitY=1;exitDx=0;exitDy=0;flowAnimation=0;" edge="1" parent="1" source="kjqUYPn-NtSr5DM89MB0-87" target="kjqUYPn-NtSr5DM89MB0-75">
          <mxGeometry relative="1" as="geometry" />
        </mxCell>
        <mxCell id="kjqUYPn-NtSr5DM89MB0-94" style="edgeStyle=elbowEdgeStyle;shape=connector;rounded=1;orthogonalLoop=1;jettySize=auto;elbow=vertical;html=1;exitX=0.5;exitY=1;exitDx=0;exitDy=0;strokeColor=#23445D;strokeWidth=4;align=center;verticalAlign=middle;fontFamily=Helvetica;fontSize=11;fontColor=default;fontStyle=1;labelBackgroundColor=default;endArrow=block;endFill=1;" edge="1" parent="1" source="kjqUYPn-NtSr5DM89MB0-87" target="kjqUYPn-NtSr5DM89MB0-91">
          <mxGeometry relative="1" as="geometry" />
        </mxCell>
        <mxCell id="kjqUYPn-NtSr5DM89MB0-120" style="edgeStyle=elbowEdgeStyle;shape=connector;rounded=1;orthogonalLoop=1;jettySize=auto;elbow=vertical;html=1;entryX=0.5;entryY=0;entryDx=0;entryDy=0;strokeColor=#23445D;strokeWidth=4;align=center;verticalAlign=middle;fontFamily=Helvetica;fontSize=11;fontColor=default;fontStyle=1;labelBackgroundColor=default;endArrow=block;endFill=1;" edge="1" parent="1" source="kjqUYPn-NtSr5DM89MB0-87" target="kjqUYPn-NtSr5DM89MB0-117">
          <mxGeometry relative="1" as="geometry" />
        </mxCell>
        <mxCell id="kjqUYPn-NtSr5DM89MB0-87" value="Emily Smith" style="rounded=1;fillColor=#10739E;strokeColor=none;shadow=1;gradientColor=none;fontStyle=1;fontColor=#FFFFFF;fontSize=14;" vertex="1" parent="1">
          <mxGeometry x="250" y="170" width="190" height="60" as="geometry" />
        </mxCell>
        <mxCell id="kjqUYPn-NtSr5DM89MB0-89" style="edgeStyle=elbowEdgeStyle;shape=connector;rounded=1;orthogonalLoop=1;jettySize=auto;elbow=vertical;html=1;exitX=0.5;exitY=1;exitDx=0;exitDy=0;strokeColor=#23445D;strokeWidth=4;align=center;verticalAlign=middle;fontFamily=Helvetica;fontSize=11;fontColor=default;fontStyle=1;labelBackgroundColor=default;endArrow=block;endFill=1;" edge="1" parent="1" source="kjqUYPn-NtSr5DM89MB0-88" target="kjqUYPn-NtSr5DM89MB0-75">
          <mxGeometry relative="1" as="geometry" />
        </mxCell>
        <mxCell id="kjqUYPn-NtSr5DM89MB0-93" style="edgeStyle=elbowEdgeStyle;shape=connector;rounded=1;orthogonalLoop=1;jettySize=auto;elbow=vertical;html=1;exitX=0.5;exitY=1;exitDx=0;exitDy=0;strokeColor=#23445D;strokeWidth=4;align=center;verticalAlign=middle;fontFamily=Helvetica;fontSize=11;fontColor=default;fontStyle=1;labelBackgroundColor=default;endArrow=block;endFill=1;" edge="1" parent="1" source="kjqUYPn-NtSr5DM89MB0-88" target="kjqUYPn-NtSr5DM89MB0-91">
          <mxGeometry relative="1" as="geometry" />
        </mxCell>
        <mxCell id="kjqUYPn-NtSr5DM89MB0-118" style="edgeStyle=elbowEdgeStyle;shape=connector;rounded=1;orthogonalLoop=1;jettySize=auto;elbow=vertical;html=1;strokeColor=#23445D;strokeWidth=4;align=center;verticalAlign=middle;fontFamily=Helvetica;fontSize=11;fontColor=default;fontStyle=1;labelBackgroundColor=default;endArrow=block;endFill=1;" edge="1" parent="1" source="kjqUYPn-NtSr5DM89MB0-88" target="kjqUYPn-NtSr5DM89MB0-117">
          <mxGeometry relative="1" as="geometry" />
        </mxCell>
        <mxCell id="kjqUYPn-NtSr5DM89MB0-88" value="Zach Smith" style="rounded=1;fillColor=#10739E;strokeColor=none;shadow=1;gradientColor=none;fontStyle=1;fontColor=#FFFFFF;fontSize=14;" vertex="1" parent="1">
          <mxGeometry x="-160" y="170" width="200" height="60" as="geometry" />
        </mxCell>
        <mxCell id="kjqUYPn-NtSr5DM89MB0-175" style="edgeStyle=elbowEdgeStyle;shape=connector;rounded=1;orthogonalLoop=1;jettySize=auto;elbow=vertical;html=1;exitX=0.5;exitY=1;exitDx=0;exitDy=0;entryX=0.5;entryY=0;entryDx=0;entryDy=0;strokeColor=#23445D;strokeWidth=4;align=center;verticalAlign=middle;fontFamily=Helvetica;fontSize=11;fontColor=default;fontStyle=1;labelBackgroundColor=default;endArrow=block;endFill=1;" edge="1" parent="1" source="kjqUYPn-NtSr5DM89MB0-106" target="kjqUYPn-NtSr5DM89MB0-110">
          <mxGeometry relative="1" as="geometry" />
        </mxCell>
        <mxCell id="kjqUYPn-NtSr5DM89MB0-106" value="Blake Woods" style="rounded=1;fillColor=#10739E;strokeColor=none;shadow=1;gradientColor=none;fontStyle=1;fontColor=#FFFFFF;fontSize=14;" vertex="1" parent="1">
          <mxGeometry x="1090" y="430" width="200" height="60" as="geometry" />
        </mxCell>
        <mxCell id="kjqUYPn-NtSr5DM89MB0-176" style="edgeStyle=elbowEdgeStyle;shape=connector;rounded=1;orthogonalLoop=1;jettySize=auto;elbow=vertical;html=1;startArrow=none;endArrow=none;entryX=0.5;entryY=0;entryDx=0;entryDy=0;strokeColor=#23445D;strokeWidth=4;align=center;verticalAlign=middle;fontFamily=Helvetica;fontSize=11;fontColor=default;fontStyle=1;labelBackgroundColor=default;" edge="1" parent="1" source="kjqUYPn-NtSr5DM89MB0-110" target="kjqUYPn-NtSr5DM89MB0-125">
          <mxGeometry relative="1" as="geometry" />
        </mxCell>
        <mxCell id="kjqUYPn-NtSr5DM89MB0-177" style="edgeStyle=elbowEdgeStyle;shape=connector;rounded=1;orthogonalLoop=1;jettySize=auto;elbow=vertical;html=1;startArrow=none;endArrow=none;entryX=0.5;entryY=0;entryDx=0;entryDy=0;strokeColor=#23445D;strokeWidth=4;align=center;verticalAlign=middle;fontFamily=Helvetica;fontSize=11;fontColor=default;fontStyle=1;labelBackgroundColor=default;" edge="1" parent="1" source="kjqUYPn-NtSr5DM89MB0-110" target="kjqUYPn-NtSr5DM89MB0-126">
          <mxGeometry relative="1" as="geometry" />
        </mxCell>
        <mxCell id="kjqUYPn-NtSr5DM89MB0-178" style="edgeStyle=elbowEdgeStyle;shape=connector;rounded=1;orthogonalLoop=1;jettySize=auto;elbow=vertical;html=1;startArrow=none;endArrow=none;entryX=0.5;entryY=0;entryDx=0;entryDy=0;strokeColor=#23445D;strokeWidth=4;align=center;verticalAlign=middle;fontFamily=Helvetica;fontSize=11;fontColor=default;fontStyle=1;labelBackgroundColor=default;" edge="1" parent="1" source="kjqUYPn-NtSr5DM89MB0-110" target="kjqUYPn-NtSr5DM89MB0-127">
          <mxGeometry relative="1" as="geometry" />
        </mxCell>
        <mxCell id="kjqUYPn-NtSr5DM89MB0-179" style="edgeStyle=elbowEdgeStyle;shape=connector;rounded=1;orthogonalLoop=1;jettySize=auto;elbow=vertical;html=1;startArrow=none;endArrow=none;entryX=0.5;entryY=0;entryDx=0;entryDy=0;strokeColor=#23445D;strokeWidth=4;align=center;verticalAlign=middle;fontFamily=Helvetica;fontSize=11;fontColor=default;fontStyle=1;labelBackgroundColor=default;" edge="1" parent="1" source="kjqUYPn-NtSr5DM89MB0-110" target="kjqUYPn-NtSr5DM89MB0-124">
          <mxGeometry relative="1" as="geometry" />
        </mxCell>
        <mxCell id="kjqUYPn-NtSr5DM89MB0-110" value="Cooler" style="whiteSpace=wrap;html=1;align=center;verticalAlign=middle;treeFolding=1;treeMoving=1;newEdgeStyle={&quot;edgeStyle&quot;:&quot;elbowEdgeStyle&quot;,&quot;startArrow&quot;:&quot;none&quot;,&quot;endArrow&quot;:&quot;none&quot;};fontFamily=Helvetica;fontSize=11;fontColor=default;fontStyle=1;labelBackgroundColor=default;" vertex="1" parent="1">
          <mxGeometry x="1140" y="530" width="100" height="60" as="geometry" />
        </mxCell>
        <mxCell id="kjqUYPn-NtSr5DM89MB0-113" value="Charly Collins" style="rounded=1;fillColor=#10739E;strokeColor=none;shadow=1;gradientColor=none;fontStyle=1;fontColor=#FFFFFF;fontSize=14;" vertex="1" parent="1">
          <mxGeometry x="1410" y="430" width="200" height="60" as="geometry" />
        </mxCell>
        <mxCell id="kjqUYPn-NtSr5DM89MB0-114" value="Peter Hollowell" style="rounded=1;fillColor=#10739E;strokeColor=none;shadow=1;gradientColor=none;fontStyle=1;fontColor=#FFFFFF;fontSize=14;" vertex="1" parent="1">
          <mxGeometry x="1630" y="430" width="200" height="60" as="geometry" />
        </mxCell>
        <mxCell id="kjqUYPn-NtSr5DM89MB0-115" style="edgeStyle=elbowEdgeStyle;shape=connector;rounded=1;orthogonalLoop=1;jettySize=auto;elbow=vertical;html=1;startArrow=none;endArrow=none;strokeColor=#23445D;strokeWidth=4;align=center;verticalAlign=middle;fontFamily=Helvetica;fontSize=11;fontColor=default;fontStyle=1;labelBackgroundColor=default;exitX=0.5;exitY=1;exitDx=0;exitDy=0;" edge="1" parent="1" source="kjqUYPn-NtSr5DM89MB0-117" target="kjqUYPn-NtSr5DM89MB0-113">
          <mxGeometry relative="1" as="geometry" />
        </mxCell>
        <mxCell id="kjqUYPn-NtSr5DM89MB0-116" style="edgeStyle=elbowEdgeStyle;shape=connector;rounded=1;orthogonalLoop=1;jettySize=auto;elbow=vertical;html=1;startArrow=none;endArrow=none;entryX=0.5;entryY=0;entryDx=0;entryDy=0;strokeColor=#23445D;strokeWidth=4;align=center;verticalAlign=middle;fontFamily=Helvetica;fontSize=11;fontColor=default;fontStyle=1;labelBackgroundColor=default;exitX=0.5;exitY=1;exitDx=0;exitDy=0;" edge="1" parent="1" source="kjqUYPn-NtSr5DM89MB0-117" target="kjqUYPn-NtSr5DM89MB0-114">
          <mxGeometry relative="1" as="geometry">
            <mxPoint x="1750" y="370" as="sourcePoint" />
          </mxGeometry>
        </mxCell>
        <mxCell id="kjqUYPn-NtSr5DM89MB0-123" style="edgeStyle=elbowEdgeStyle;shape=connector;rounded=1;orthogonalLoop=1;jettySize=auto;elbow=vertical;html=1;startArrow=none;endArrow=none;exitX=0.5;exitY=1;exitDx=0;exitDy=0;entryX=0.5;entryY=0;entryDx=0;entryDy=0;strokeColor=#23445D;strokeWidth=4;align=center;verticalAlign=middle;fontFamily=Helvetica;fontSize=11;fontColor=default;fontStyle=1;labelBackgroundColor=default;" edge="1" parent="1" source="kjqUYPn-NtSr5DM89MB0-117" target="kjqUYPn-NtSr5DM89MB0-122">
          <mxGeometry relative="1" as="geometry" />
        </mxCell>
        <mxCell id="kjqUYPn-NtSr5DM89MB0-117" value="Business Operations" style="whiteSpace=wrap;html=1;align=center;verticalAlign=middle;treeFolding=1;treeMoving=1;newEdgeStyle={&quot;edgeStyle&quot;:&quot;elbowEdgeStyle&quot;,&quot;startArrow&quot;:&quot;none&quot;,&quot;endArrow&quot;:&quot;none&quot;};fontFamily=Helvetica;fontSize=11;fontColor=default;fontStyle=1;labelBackgroundColor=default;" vertex="1" parent="1">
          <mxGeometry x="1680" y="280" width="100" height="60" as="geometry" />
        </mxCell>
        <mxCell id="kjqUYPn-NtSr5DM89MB0-122" value="Daren Hunter" style="rounded=1;fillColor=#10739E;strokeColor=none;shadow=1;gradientColor=none;fontStyle=1;fontColor=#FFFFFF;fontSize=14;" vertex="1" parent="1">
          <mxGeometry x="1850" y="430" width="200" height="60" as="geometry" />
        </mxCell>
        <mxCell id="kjqUYPn-NtSr5DM89MB0-124" value="Angie Bubar" style="rounded=1;fillColor=#10739E;strokeColor=none;shadow=1;gradientColor=none;fontStyle=1;fontColor=#FFFFFF;fontSize=14;" vertex="1" parent="1">
          <mxGeometry x="1420" y="710" width="200" height="60" as="geometry" />
        </mxCell>
        <mxCell id="kjqUYPn-NtSr5DM89MB0-125" value="Peter Pierce" style="rounded=1;fillColor=#10739E;strokeColor=none;shadow=1;gradientColor=none;fontStyle=1;fontColor=#FFFFFF;fontSize=14;" vertex="1" parent="1">
          <mxGeometry x="770" y="710" width="200" height="60" as="geometry" />
        </mxCell>
        <mxCell id="kjqUYPn-NtSr5DM89MB0-126" value="Issac Howes" style="rounded=1;fillColor=#10739E;strokeColor=none;shadow=1;gradientColor=none;fontStyle=1;fontColor=#FFFFFF;fontSize=14;" vertex="1" parent="1">
          <mxGeometry x="980" y="710" width="200" height="60" as="geometry" />
        </mxCell>
        <mxCell id="kjqUYPn-NtSr5DM89MB0-127" value="Dustin Oakes" style="rounded=1;fillColor=#10739E;strokeColor=none;shadow=1;gradientColor=none;fontStyle=1;fontColor=#FFFFFF;fontSize=14;" vertex="1" parent="1">
          <mxGeometry x="1200" y="710" width="200" height="60" as="geometry" />
        </mxCell>
        <mxCell id="kjqUYPn-NtSr5DM89MB0-132" value="" style="group" vertex="1" connectable="0" parent="1">
          <mxGeometry x="-2300" y="280" width="420" height="210" as="geometry" />
        </mxCell>
        <mxCell id="kjqUYPn-NtSr5DM89MB0-97" style="edgeStyle=elbowEdgeStyle;shape=connector;rounded=1;orthogonalLoop=1;jettySize=auto;elbow=vertical;html=1;startArrow=none;endArrow=none;entryX=0.5;entryY=0;entryDx=0;entryDy=0;strokeColor=#23445D;strokeWidth=4;align=center;verticalAlign=middle;fontFamily=Helvetica;fontSize=11;fontColor=default;fontStyle=1;labelBackgroundColor=default;" edge="1" parent="kjqUYPn-NtSr5DM89MB0-132" source="kjqUYPn-NtSr5DM89MB0-91" target="kjqUYPn-NtSr5DM89MB0-95">
          <mxGeometry relative="1" as="geometry" />
        </mxCell>
        <mxCell id="kjqUYPn-NtSr5DM89MB0-98" style="edgeStyle=elbowEdgeStyle;shape=connector;rounded=1;orthogonalLoop=1;jettySize=auto;elbow=vertical;html=1;startArrow=none;endArrow=none;exitX=0.5;exitY=1;exitDx=0;exitDy=0;entryX=0.5;entryY=0;entryDx=0;entryDy=0;strokeColor=#23445D;strokeWidth=4;align=center;verticalAlign=middle;fontFamily=Helvetica;fontSize=11;fontColor=default;fontStyle=1;labelBackgroundColor=default;" edge="1" parent="kjqUYPn-NtSr5DM89MB0-132" source="kjqUYPn-NtSr5DM89MB0-91" target="kjqUYPn-NtSr5DM89MB0-96">
          <mxGeometry relative="1" as="geometry" />
        </mxCell>
        <mxCell id="kjqUYPn-NtSr5DM89MB0-91" value="Land Management" style="whiteSpace=wrap;html=1;align=center;verticalAlign=middle;treeFolding=1;treeMoving=1;newEdgeStyle={&quot;edgeStyle&quot;:&quot;elbowEdgeStyle&quot;,&quot;startArrow&quot;:&quot;none&quot;,&quot;endArrow&quot;:&quot;none&quot;};fontFamily=Helvetica;fontSize=11;fontColor=default;fontStyle=1;labelBackgroundColor=default;" vertex="1" parent="kjqUYPn-NtSr5DM89MB0-132">
          <mxGeometry x="160" width="100" height="60" as="geometry" />
        </mxCell>
        <mxCell id="kjqUYPn-NtSr5DM89MB0-95" value="Construction" style="rounded=1;fillColor=#10739E;strokeColor=none;shadow=1;gradientColor=none;fontStyle=1;fontColor=#FFFFFF;fontSize=14;" vertex="1" parent="kjqUYPn-NtSr5DM89MB0-132">
          <mxGeometry y="150" width="200" height="60" as="geometry" />
        </mxCell>
        <mxCell id="kjqUYPn-NtSr5DM89MB0-96" value="Grain" style="rounded=1;fillColor=#10739E;strokeColor=none;shadow=1;gradientColor=none;fontStyle=1;fontColor=#FFFFFF;fontSize=14;" vertex="1" parent="kjqUYPn-NtSr5DM89MB0-132">
          <mxGeometry x="220" y="150" width="200" height="60" as="geometry" />
        </mxCell>
        <mxCell id="kjqUYPn-NtSr5DM89MB0-133" value="Shane Stackpole" style="rounded=1;fillColor=#10739E;strokeColor=none;shadow=1;gradientColor=none;fontStyle=1;fontColor=#FFFFFF;fontSize=14;" vertex="1" parent="1">
          <mxGeometry x="308" y="710" width="200" height="60" as="geometry" />
        </mxCell>
        <mxCell id="kjqUYPn-NtSr5DM89MB0-134" value="Danny Langley" style="rounded=1;fillColor=#10739E;strokeColor=none;shadow=1;gradientColor=none;fontStyle=1;fontColor=#FFFFFF;fontSize=14;" vertex="1" parent="1">
          <mxGeometry x="-328" y="710" width="200" height="60" as="geometry" />
        </mxCell>
        <mxCell id="kjqUYPn-NtSr5DM89MB0-135" value="Gregorio" style="rounded=1;fillColor=#10739E;strokeColor=none;shadow=1;gradientColor=none;fontStyle=1;fontColor=#FFFFFF;fontSize=14;" vertex="1" parent="1">
          <mxGeometry x="-116" y="710" width="200" height="60" as="geometry" />
        </mxCell>
        <mxCell id="kjqUYPn-NtSr5DM89MB0-136" value="Teofilo" style="rounded=1;fillColor=#10739E;strokeColor=none;shadow=1;gradientColor=none;fontStyle=1;fontColor=#FFFFFF;fontSize=14;" vertex="1" parent="1">
          <mxGeometry x="96" y="710" width="200" height="60" as="geometry" />
        </mxCell>
        <mxCell id="kjqUYPn-NtSr5DM89MB0-137" value="Eddie" style="rounded=1;fillColor=#10739E;strokeColor=none;shadow=1;gradientColor=none;fontStyle=1;fontColor=#FFFFFF;fontSize=14;" vertex="1" parent="1">
          <mxGeometry x="520" y="710" width="200" height="60" as="geometry" />
        </mxCell>
        <mxCell id="kjqUYPn-NtSr5DM89MB0-138" value="Westfield Plant" style="rounded=1;fillColor=#10739E;strokeColor=none;shadow=1;gradientColor=none;fontStyle=1;fontColor=#FFFFFF;fontSize=14;" vertex="1" parent="1">
          <mxGeometry x="-540" y="710" width="200" height="60" as="geometry" />
        </mxCell>
        <mxCell id="kjqUYPn-NtSr5DM89MB0-147" value="Westfield" style="whiteSpace=wrap;html=1;align=center;verticalAlign=middle;treeFolding=1;treeMoving=1;newEdgeStyle={&quot;edgeStyle&quot;:&quot;elbowEdgeStyle&quot;,&quot;startArrow&quot;:&quot;none&quot;,&quot;endArrow&quot;:&quot;none&quot;};fontFamily=Helvetica;fontSize=11;fontColor=default;fontStyle=1;labelBackgroundColor=default;" vertex="1" parent="1">
          <mxGeometry x="40" y="530" width="100" height="60" as="geometry" />
        </mxCell>
        <mxCell id="kjqUYPn-NtSr5DM89MB0-158" style="edgeStyle=elbowEdgeStyle;shape=connector;rounded=1;orthogonalLoop=1;jettySize=auto;elbow=vertical;html=1;entryX=0.5;entryY=0;entryDx=0;entryDy=0;strokeColor=#23445D;strokeWidth=4;align=center;verticalAlign=middle;fontFamily=Helvetica;fontSize=11;fontColor=default;fontStyle=1;labelBackgroundColor=default;endArrow=none;endFill=1;exitX=0.5;exitY=1;exitDx=0;exitDy=0;startFill=0;" edge="1" parent="1" source="kjqUYPn-NtSr5DM89MB0-170" target="kjqUYPn-NtSr5DM89MB0-169">
          <mxGeometry relative="1" as="geometry">
            <Array as="points">
              <mxPoint x="-1140" y="640" />
            </Array>
          </mxGeometry>
        </mxCell>
        <mxCell id="kjqUYPn-NtSr5DM89MB0-159" style="edgeStyle=elbowEdgeStyle;shape=connector;rounded=1;orthogonalLoop=1;jettySize=auto;elbow=vertical;html=1;entryX=0.5;entryY=0;entryDx=0;entryDy=0;strokeColor=#23445D;strokeWidth=4;align=center;verticalAlign=middle;fontFamily=Helvetica;fontSize=11;fontColor=default;fontStyle=1;labelBackgroundColor=default;endArrow=none;endFill=1;exitX=0.5;exitY=1;exitDx=0;exitDy=0;startFill=0;" edge="1" parent="1" source="kjqUYPn-NtSr5DM89MB0-170" target="kjqUYPn-NtSr5DM89MB0-165">
          <mxGeometry relative="1" as="geometry">
            <Array as="points">
              <mxPoint x="-1390" y="640" />
            </Array>
          </mxGeometry>
        </mxCell>
        <mxCell id="kjqUYPn-NtSr5DM89MB0-160" style="edgeStyle=elbowEdgeStyle;shape=connector;rounded=1;orthogonalLoop=1;jettySize=auto;elbow=vertical;html=1;entryX=0.5;entryY=0;entryDx=0;entryDy=0;strokeColor=#23445D;strokeWidth=4;align=center;verticalAlign=middle;fontFamily=Helvetica;fontSize=11;fontColor=default;fontStyle=1;labelBackgroundColor=default;endArrow=none;endFill=1;exitX=0.5;exitY=1;exitDx=0;exitDy=0;startFill=0;" edge="1" parent="1" source="kjqUYPn-NtSr5DM89MB0-170" target="kjqUYPn-NtSr5DM89MB0-167">
          <mxGeometry relative="1" as="geometry">
            <Array as="points">
              <mxPoint x="-1180" y="640" />
              <mxPoint x="-674" y="720" />
            </Array>
          </mxGeometry>
        </mxCell>
        <mxCell id="kjqUYPn-NtSr5DM89MB0-161" style="edgeStyle=elbowEdgeStyle;shape=connector;rounded=1;orthogonalLoop=1;jettySize=auto;elbow=vertical;html=1;entryX=0.5;entryY=0;entryDx=0;entryDy=0;strokeColor=#23445D;strokeWidth=4;align=center;verticalAlign=middle;fontFamily=Helvetica;fontSize=11;fontColor=default;fontStyle=1;labelBackgroundColor=default;endArrow=none;endFill=1;exitX=0.5;exitY=1;exitDx=0;exitDy=0;startFill=0;" edge="1" parent="1" source="kjqUYPn-NtSr5DM89MB0-170" target="kjqUYPn-NtSr5DM89MB0-164">
          <mxGeometry relative="1" as="geometry">
            <Array as="points">
              <mxPoint x="-1130" y="640" />
              <mxPoint x="-514" y="720" />
            </Array>
          </mxGeometry>
        </mxCell>
        <mxCell id="kjqUYPn-NtSr5DM89MB0-162" style="edgeStyle=elbowEdgeStyle;shape=connector;rounded=1;orthogonalLoop=1;jettySize=auto;elbow=vertical;html=1;entryX=0.5;entryY=0;entryDx=0;entryDy=0;strokeColor=#23445D;strokeWidth=4;align=center;verticalAlign=middle;fontFamily=Helvetica;fontSize=11;fontColor=default;fontStyle=1;labelBackgroundColor=default;endArrow=none;endFill=1;exitX=0.5;exitY=1;exitDx=0;exitDy=0;startFill=0;" edge="1" parent="1" source="kjqUYPn-NtSr5DM89MB0-170" target="kjqUYPn-NtSr5DM89MB0-168">
          <mxGeometry relative="1" as="geometry">
            <Array as="points">
              <mxPoint x="-1040" y="640" />
              <mxPoint x="-414" y="720" />
            </Array>
          </mxGeometry>
        </mxCell>
        <mxCell id="kjqUYPn-NtSr5DM89MB0-163" style="edgeStyle=elbowEdgeStyle;shape=connector;rounded=1;orthogonalLoop=1;jettySize=auto;elbow=vertical;html=1;entryX=0.5;entryY=0;entryDx=0;entryDy=0;strokeColor=#23445D;strokeWidth=4;align=center;verticalAlign=middle;fontFamily=Helvetica;fontSize=11;fontColor=default;fontStyle=1;labelBackgroundColor=default;endArrow=none;endFill=1;exitX=0.5;exitY=1;exitDx=0;exitDy=0;startFill=0;" edge="1" parent="1" source="kjqUYPn-NtSr5DM89MB0-170" target="kjqUYPn-NtSr5DM89MB0-166">
          <mxGeometry relative="1" as="geometry">
            <Array as="points">
              <mxPoint x="-1180" y="640" />
              <mxPoint x="-1120" y="700" />
            </Array>
          </mxGeometry>
        </mxCell>
        <mxCell id="kjqUYPn-NtSr5DM89MB0-164" value="Victor" style="rounded=1;fillColor=#10739E;strokeColor=none;shadow=1;gradientColor=none;fontStyle=1;fontColor=#FFFFFF;fontSize=14;" vertex="1" parent="1">
          <mxGeometry x="-982" y="710" width="200" height="60" as="geometry" />
        </mxCell>
        <mxCell id="kjqUYPn-NtSr5DM89MB0-165" value="Juan Sprayer" style="rounded=1;fillColor=#10739E;strokeColor=none;shadow=1;gradientColor=none;fontStyle=1;fontColor=#FFFFFF;fontSize=14;" vertex="1" parent="1">
          <mxGeometry x="-1618" y="710" width="200" height="60" as="geometry" />
        </mxCell>
        <mxCell id="kjqUYPn-NtSr5DM89MB0-166" value="Pascael" style="rounded=1;fillColor=#10739E;strokeColor=none;shadow=1;gradientColor=none;fontStyle=1;fontColor=#FFFFFF;fontSize=14;" vertex="1" parent="1">
          <mxGeometry x="-1406" y="710" width="200" height="60" as="geometry" />
        </mxCell>
        <mxCell id="kjqUYPn-NtSr5DM89MB0-167" value="Armando" style="rounded=1;fillColor=#10739E;strokeColor=none;shadow=1;gradientColor=none;fontStyle=1;fontColor=#FFFFFF;fontSize=14;" vertex="1" parent="1">
          <mxGeometry x="-1194" y="710" width="200" height="60" as="geometry" />
        </mxCell>
        <mxCell id="kjqUYPn-NtSr5DM89MB0-168" value="Ben" style="rounded=1;fillColor=#10739E;strokeColor=none;shadow=1;gradientColor=none;fontStyle=1;fontColor=#FFFFFF;fontSize=14;" vertex="1" parent="1">
          <mxGeometry x="-770" y="710" width="200" height="60" as="geometry" />
        </mxCell>
        <mxCell id="kjqUYPn-NtSr5DM89MB0-169" value="Limestone Plant" style="rounded=1;fillColor=#10739E;strokeColor=none;shadow=1;gradientColor=none;fontStyle=1;fontColor=#FFFFFF;fontSize=14;" vertex="1" parent="1">
          <mxGeometry x="-1830" y="710" width="200" height="60" as="geometry" />
        </mxCell>
        <mxCell id="kjqUYPn-NtSr5DM89MB0-170" value="Limestone" style="whiteSpace=wrap;html=1;align=center;verticalAlign=middle;treeFolding=1;treeMoving=1;newEdgeStyle={&quot;edgeStyle&quot;:&quot;elbowEdgeStyle&quot;,&quot;startArrow&quot;:&quot;none&quot;,&quot;endArrow&quot;:&quot;none&quot;};fontFamily=Helvetica;fontSize=11;fontColor=default;fontStyle=1;labelBackgroundColor=default;" vertex="1" parent="1">
          <mxGeometry x="-1240" y="530" width="100" height="60" as="geometry" />
        </mxCell>
      </root>
    </mxGraphModel>
  </diagram>
</mxfile>
